<svg clip-rule="evenodd" fill-rule="evenodd" stroke-linejoin="round" stroke-miterlimit="2" viewBox="0 0 510 510" xmlns="http://www.w3.org/2000/svg"><path d="m97.042 130.038c-3.064 11.026-13.183 19.128-25.179 19.128-14.421 0-26.128-11.708-26.128-26.128 0-14.421 11.707-26.129 26.128-26.129 11.996 0 22.115 8.103 25.179 19.129h13.357c1.86 0 3.643.74 4.956 2.056 1.314 1.317 2.049 3.102 2.044 4.961l-.12 48.222h48.618c6.058-7.622 14.836-12.985 24.867-14.623.415-13.016 7.82-24.274 18.59-30.141v-34.19l-48.221.121c-1.86.004-3.645-.731-4.962-2.044-1.316-1.313-2.056-3.097-2.056-4.956v-23.368c-10.858-3.172-18.8-13.208-18.8-25.086 0-14.42 11.707-26.128 26.128-26.128s26.128 11.708 26.128 26.128c0 12.115-8.263 22.316-19.456 25.268v16.168l48.222-.12c1.859-.005 3.644.73 4.961 2.044 1.316 1.313 2.056 3.096 2.056 4.956v37.012c.998-.083 2.008-.126 3.027-.126 8.129 0 15.623 2.802 21.619 7.446v-67.469c-11.026-3.063-19.128-13.182-19.128-25.179 0-14.42 11.707-26.128 26.128-26.128s26.128 11.708 26.128 26.128c0 11.997-8.102 22.116-19.128 25.179v67.469c5.996-4.644 13.49-7.446 21.619-7.446 1.019 0 2.029.043 3.027.126v-37.012c0-1.86.74-3.643 2.056-4.956 1.317-1.314 3.102-2.049 4.961-2.044l48.222.12v-16.257c-11.026-3.063-19.128-13.182-19.128-25.179 0-14.42 11.707-26.128 26.128-26.128s26.128 11.708 26.128 26.128c0 11.997-8.102 22.116-19.128 25.179v23.275c0 1.859-.74 3.643-2.056 4.956-1.317 1.313-3.102 2.048-4.962 2.044 0 0-48.221-.121-48.221-.121v34.19c10.77 5.867 18.175 17.125 18.59 30.141 10.031 1.638 18.809 7.001 24.867 14.623h40.455l-.121-48.222c-.004-1.859.731-3.644 2.044-4.961 1.314-1.316 3.097-2.056 4.956-2.056h13.358c3.063-11.026 13.182-19.129 25.179-19.129 14.42 0 26.128 11.708 26.128 26.129 0 14.42-11.708 26.128-26.128 26.128-11.997 0-22.116-8.102-25.179-19.128h-6.34l.121 48.221c.004 1.86-.731 3.645-2.044 4.961-1.314 1.317-3.097 2.057-4.956 2.057h-40.295c.978 3.466 1.502 7.123 1.502 10.902 0 7.371-1.994 14.277-5.472 20.21 5.365 6.754 8.574 15.303 8.574 24.602 0 11.845-5.21 22.471-13.443 29.723.322 1.92.489 3.892.489 5.902 0 15.845-10.349 29.272-24.653 33.906-3.747 15.665-17.837 27.332-34.659 27.332-11.723 0-22.127-6.031-28.619-14.856-6.492 8.825-16.896 14.856-28.619 14.856-16.822 0-30.912-11.667-34.659-27.332-14.304-4.634-24.653-18.061-24.653-33.906 0-2.01.168-3.982.488-5.902-8.232-7.252-13.442-17.878-13.442-29.723 0-9.299 3.209-17.848 8.574-24.602-3.478-5.933-5.472-12.839-5.472-20.21 0-3.779.524-7.436 1.502-10.902h-48.458c-1.859 0-3.643-.74-4.956-2.057-1.313-1.316-2.049-3.101-2.044-4.961l.121-48.221zm-13.051-7c0-6.694-5.434-12.129-12.128-12.129s-12.128 5.435-12.128 12.129c0 6.693 5.434 12.128 12.128 12.128s12.128-5.435 12.128-12.128zm120.776 33.79c8.041 1.52 15.228 5.44 20.796 10.992 2.735 2.727 2.742 7.163.014 9.899s-7.164 2.742-9.9.014c-4.716-4.703-11.22-7.604-18.409-7.604-14.389 0-26.051 11.661-26.051 26.05 0 14.375 11.663 26.034 26.051 26.034 3.863 0 7 3.137 7 7s-3.137 7-7 7c-9.544 0-18.307-3.337-25.187-8.907-2.51 3.957-3.966 8.651-3.966 13.685 0 5.813 1.943 11.17 5.207 15.466 2.105-3.065 4.674-5.786 7.604-8.059 3.053-2.368 7.453-1.813 9.822 1.24 2.368 3.052 1.812 7.453-1.24 9.821-5.119 3.971-8.439 10.182-8.439 17.157 0 11.952 9.701 21.636 21.653 21.636 6.017 0 11.466-2.463 15.395-6.431 2.719-2.746 7.155-2.767 9.9-.049 2.745 2.719 2.767 7.154.048 9.9-5.506 5.56-12.826 9.321-20.992 10.316 3.57 7.038 10.875 11.866 19.308 11.866 11.937 0 21.619-10.304 21.619-21.636v-144.407c0-11.666-9.683-21.619-21.619-21.619-11.62 0-21.1 9.155-21.614 20.636zm50.233-107.709c6.694 0 12.128-5.435 12.128-12.129 0-6.693-5.434-12.128-12.128-12.128s-12.128 5.435-12.128 12.128c0 6.694 5.434 12.129 12.128 12.129zm50.233 107.709c-.514-11.481-9.994-20.636-21.614-20.636-11.936 0-21.619 9.953-21.619 21.619v144.407c0 11.332 9.682 21.636 21.619 21.636 8.433 0 15.738-4.828 19.308-11.866-8.166-.995-15.486-4.756-20.992-10.316-2.719-2.746-2.697-7.181.048-9.9 2.745-2.718 7.181-2.697 9.9.049 3.929 3.968 9.378 6.431 15.395 6.431 11.952 0 21.653-9.684 21.653-21.636 0-6.973-3.319-13.182-8.449-17.152-3.055-2.364-3.616-6.764-1.252-9.82 2.365-3.055 6.765-3.616 9.82-1.251 2.94 2.275 5.517 4.998 7.626 8.067 3.265-4.296 5.209-9.654 5.209-15.469 0-5.034-1.456-9.728-3.966-13.685-6.88 5.57-15.643 8.907-25.187 8.907-3.863 0-7-3.137-7-7s3.137-7 7-7c14.388 0 26.051-11.659 26.051-26.034 0-14.389-11.662-26.05-26.051-26.05-7.189 0-13.693 2.901-18.409 7.604-2.736 2.728-7.172 2.722-9.9-.014s-2.721-7.172.014-9.899c5.568-5.552 12.755-9.472 20.796-10.992zm-143.79-131.966c-6.694 0-12.128 5.435-12.128 12.128 0 6.694 5.434 12.129 12.128 12.129s12.128-5.435 12.128-12.129c0-6.693-5.434-12.128-12.128-12.128zm187.442 0c-6.694 0-12.128 5.435-12.128 12.128 0 6.694 5.434 12.129 12.128 12.129s12.128-5.435 12.128-12.129c0-6.693-5.434-12.128-12.128-12.128zm81.089 86.047c-6.694 0-12.129 5.435-12.129 12.129 0 6.693 5.435 12.128 12.129 12.128 6.693 0 12.128-5.435 12.128-12.128 0-6.694-5.435-12.129-12.128-12.129zm72.026 141.229v23.996c0 12.567-10.152 22.761-22.761 22.761-41.027 0-61.627 49.715-32.61 78.732 8.881 8.881 8.881 23.328 0 32.209l-33.931 33.931c-8.881 8.881-23.328 8.881-32.209 0-29.017-29.017-78.732-8.417-78.732 32.61 0 12.609-10.194 22.761-22.761 22.761h-47.992c-12.567 0-22.761-10.152-22.761-22.761 0-41.077-49.69-61.652-78.732-32.61-8.884 8.884-23.296 8.884-32.178.002l-33.962-33.933c-8.881-8.881-8.881-23.328 0-32.209 29.017-29.017 8.442-78.732-32.61-78.732-12.568 0-22.761-10.194-22.761-22.761v-23.996c0-3.866 3.134-7 7-7h124.699c1.856 0 3.637.738 4.95 2.05 1.312 1.313 2.05 3.094 2.05 4.951v.013c0 59.643 48.646 108.316 108.315 108.316 59.643 0 108.316-48.673 108.316-108.316v-.013c0-1.857.737-3.638 2.05-4.951 1.313-1.312 3.093-2.05 4.95-2.05h124.67c3.866 0 7 3.134 7 7zm-124.868 7c-3.643 64.125-57.11 115.33-122.118 115.33-65.036 0-118.476-51.205-122.118-115.33h-110.896v16.996c0 4.837 3.924 8.761 8.761 8.761 53.514 0 80.335 64.806 42.509 102.631-3.421 3.422-3.421 8.988 0 12.41l33.96 33.931c3.418 3.419 8.963 3.419 12.381 0 37.858-37.857 102.632-11.036 102.632 42.51 0 4.853 3.924 8.761 8.761 8.761h47.992c4.837 0 8.761-3.908 8.761-8.761 0-53.482 64.806-80.335 102.632-42.51 3.421 3.422 8.987 3.422 12.409 0l33.932-33.931c3.421-3.422 3.421-8.988 0-12.41-37.826-37.825-10.972-102.631 42.509-102.631 4.853 0 8.761-3.924 8.761-8.761v-16.996z"/></svg>