<svg id="Layer_1" enable-background="new 0 0 53 53" viewBox="0 0 53 53" xmlns="http://www.w3.org/2000/svg"><g><g><g><g><g><path d="m35.5885468 18.9608574c0 2-1.6300049 3.6400146-3.6400166 3.6400146h-3c2.0100098 0 3.6400166-1.6400146 3.6400166-3.6400146 0-1.5100098-.9100361-2.7999268-2.2100239-3.3599854.0100098-.0999756.0100098-.1899414.0100098-.289917 0-2.3601074-1.9200439-4.2800293-4.2900391-4.2800293h-.0199585c.0199585-.0700684.0199585-.1400146.0199585-.2099609 0-4.0900879-2.9400024-7.4799805-6.8299561-8.1800537.4899902-.0899658.9899902-.1400146 1.5-.1400146 4.6099854 0 8.3299561 3.7199709 8.3299561 8.3200684 0 .0699463 0 .1398926-.0199585.2099609h.0199585c2.3699951 0 4.290041 1.9199219 4.290041 4.2800293 0 .0999756 0 .1899414-.0100098.289917 1.2999878.5600585 2.210022 1.8499755 2.210022 3.3599853z"/></g><g><path d="m31.9484253 23.1003857h-3c-.2763672 0-.5-.2236328-.5-.5s.2236328-.5.5-.5c1.7314453 0 3.1396484-1.4082031 3.1396484-3.1396484 0-1.2626953-.7490234-2.4013672-1.9082031-2.9013672-.2011719-.0869141-.3222656-.2949219-.2988281-.5126953.0087891-.0810547.0078125-.1542969.0078125-.2353516 0-2.0839844-1.7001953-3.7802734-3.7900391-3.7802734-.1572266 0-.3154297-.0742188-.4101563-.2001953s-.1347656-.2890625-.0908203-.4394531c.0009766-3.8554683-2.6982422-7.0898438-6.4179688-7.7587891-.2373047-.0429688-.4111328-.25-.4111328-.4912109 0-.2421875.171875-.4492188.4101563-.4931641 5.4599609-.9980469 10.2607422 3.152344 10.4160156 8.4101563 2.4111328.2558594 4.2841797 2.2792969 4.2939453 4.7333984 1.3466797.7177734 2.1992188 2.1230469 2.1992188 3.6689453 0 2.2822265-1.8574218 4.1396484-4.1396484 4.1396484zm-.3046875-1h.3046875c1.7314453 0 3.1396484-1.4082031 3.1396484-3.1396484 0-1.2626953-.7490234-2.4013672-1.9082031-2.9013672-.2011719-.0869141-.3222656-.2949219-.2988281-.5126953.0087891-.0810547.0078125-.1542969.0078125-.2353516 0-2.0839844-1.7001953-3.7802734-3.7900391-3.7802734-.0283203 0-.0566406-.0019531-.0849609-.0068359 1.1367188.8710938 1.8691406 2.2353516 1.875 3.7675781 1.3466797.7177734 2.1992188 2.1230469 2.1992188 3.6689453-.0000001 1.2539062-.5605469 2.3798827-1.444336 3.1396484zm-5.0488281-11.5419922c.75.0791016 1.4472656.3300781 2.0537109.7109375-.0644531-.1152344-.0878906-.2509766-.0507813-.3779297.0009766-3.9374995-2.8339844-7.1689453-6.5400391-7.7841797 2.6669923 1.4746099 4.444336 4.2753911 4.5371095 7.4511719z"/></g></g></g><g><g><g><path d="m28.9484253 23.1003857h-19.5c-4.1083984 0-7.4501953-3.3417969-7.4501953-7.4492188 0-4.0732422 3.2851563-7.3925781 7.3457031-7.4492188 1.1298828-3.670898 4.5380859-6.2011719 8.4248047-6.2011719.5302734 0 1.0664063.0498047 1.5917969.1484375 4.1064453.7392578 7.1123047 4.2529297 7.234375 8.4091797 2.4111328.2558594 4.2841797 2.2792969 4.2939453 4.7333984 1.3466797.7177734 2.1992188 2.1230469 2.1992188 3.6689453-.0000001 2.2822267-1.8574219 4.1396486-4.1396485 4.1396486zm-19.4394531-13.8994141c-.0205078 0-.0410156 0-.0605469 0-3.5566406 0-6.4501953 2.8935547-6.4501953 6.4501953 0 3.5556641 2.8935547 6.4492188 6.4501953 6.4492188h19.5c1.7314453 0 3.1396484-1.4082031 3.1396484-3.1396484 0-1.2626953-.7490234-2.4013672-1.9082031-2.9013672-.2011719-.0869141-.3222656-.2949219-.2988281-.5126953.0087891-.0810547.0078125-.1542969.0078125-.2353516 0-2.0839844-1.7001953-3.7802734-3.7900391-3.7802734-.1572266 0-.3154297-.0742188-.4101563-.2001953s-.1347656-.2890625-.0908203-.4394531c.0009766-3.8554683-2.6982422-7.0898438-6.4179688-7.7587891-.46875-.0878906-.9423828-.1318359-1.4111328-.1318359-3.5644531 0-6.6757813 2.3994143-7.5654297 5.8349609-.0625.2412109-.2890625.4072266-.5449219.3710938-.0449217-.0048829-.0976561-.0058595-.1494139-.0058595z"/></g></g></g><g><g><g><g><path d="m50.118515 45.6409111c.3099976.4000244.3099976.9699707 0 1.3800049l-2.2799683 3.0200195c-.2200317.2900391-.5500488.4599609-.9200439.4599609h-2.7099609c.3699951 0 .6999512-.1699219.9199829-.4599609l2.2799683-3.0200195c.3099976-.4100342.3099976-.9799805 0-1.3800049l-2.2699585-3.0100098c-.2200317-.289917-.5499878-.460083-.9200439-.460083h-.6799927v-2.3898926h.8300171c.3599854 0 .7000122-.1600342.9100342-.4599609l2.2799683-3.0100098c.3200073-.4100342.3200073-.9799805 0-1.380127l-2.2600098-3.0100098c-.2199707-.2999268-.5599976-.4599609-.9199829-.4599609h2.7000122c.3699951 0 .7000122.1600342.9199829.4599609l2.2700195 3.0100098c.3099976.4001465.3099976.9700928 0 1.380127l-2.2800293 3.0100098c-.2199707.2999268-.5499878.4599609-.9199829.4599609h-.8200073v2.3898926h.6799927c.3699951 0 .7000122.170166.9199829.460083z"/></g><g><path d="m46.9181519 51.0007782h-2.7099609c-.2763672 0-.5-.2236328-.5-.5s.2236328-.5.5-.5c.2080078 0 .3935547-.0927734.5214844-.2617188l2.2792969-3.0195313c.1757813-.2314453.1777344-.5488281.0039063-.7724609l-2.2734375-3.015625c-.1269531-.1669922-.3125-.2607422-.5205078-.2607422h-.6806643c-.2763672 0-.5-.2236328-.5-.5v-2.3896484c0-.2763672.2236328-.5.5-.5h.8300781c.2080078 0 .390625-.0898438.5009766-.2470703l2.2910156-3.0244141c.1816406-.2333984.1835938-.546875.0078125-.7675781l-2.2695313-3.0214844c-.1230469-.1669922-.3115234-.2597675-.5205078-.2597675-.2763672 0-.5-.2236328-.5-.5s.2236328-.5.5-.5h2.7001953c.53125 0 1.0136719.2421875 1.3232422.6640625l2.2666016 3.0048847c.4443359.5742188.4453125 1.3916016 0 1.9824219l-2.28125 3.0107422c-.3046875.4160156-.7871094.6582031-1.3183594.6582031h-.3203124v1.3896484h.1806641c.5195313 0 1 .2392578 1.3173828.6572266l2.2695313 3.0087891c.4472656.5800781.4482422 1.3964844.0009766 1.9863281l-2.2792969 3.0195313c-.3173829.4179687-.7978517.6582031-1.319336.6582031zm-1.1328125-1h1.1328125c.2080078 0 .3935547-.0927734.5214844-.2617188l2.2792969-3.0195313c.1757813-.2314453.1777344-.5488281.0039063-.7724609-.0009766-.0019531-.0019531-.0039063-.0039063-.0058594l-2.2695313-3.0097656c-.1269531-.1669922-.3125-.2607422-.5205078-.2607422h-.6806641c-.2763672 0-.5-.2236328-.5-.5v-2.3896484c0-.2763672.2236328-.5.5-.5h.8203125c.2158203 0 .3945313-.0878906.5166016-.2558594l2.2851563-3.015625c.1748047-.2314453.1757813-.5498047.0029297-.7734375l-2.2744141-3.0146484c-.1259766-.1728516-.3046875-.2607441-.5205078-.2607441h-1.125l2.0048828 2.6699238c.4560547.5712891.4580078 1.3935547-.0048828 1.9882813l-2.2763672 3.0039063c-.2841797.40625-.7773438.6582031-1.3085938.6582031h-.3300782v1.3896484h.1806641c.5195313 0 1 .2392578 1.3173828.6572266l2.2714844 3.0117188c.4453125.5742188.4472656 1.3925781-.0009766 1.9833984z"/></g></g></g><g><g><g><g><path d="m44.3634644 40.2849579h-15.5673829c-.5234375 0-1.0048828-.2402344-1.3193359-.6582031l-2.2666016-3.0205078c-.4472656-.5810547-.4472656-1.3984375.0029297-1.984375l2.2636719-3.0048847c.3154297-.4189453.7958984-.6591797 1.3193359-.6591797h15.578125c.5234375 0 1.0039063.2402344 1.3193359.6591797l2.2666016 3.008791c.4462891.5810547.4462891 1.3974609-.0009766 1.9824219l-2.2763672 3.0185547c-.314453.4179686-.7958983.658203-1.3193358.658203zm-15.5673829-8.3271504c-.2089844 0-.3935547.0927753-.5205078.2607441l-2.2666016 3.0087891c-.1767578.2304688-.1767578.5478516-.0029297.7744141l2.2695313 3.0244141c.1259766.1669922.3105469.2587891.5205078.2587891h15.5673828c.2099609 0 .3945313-.0917969.5205078-.2597656l2.2773438-3.0195313c.0009766-.0009766.0019531-.0029297.0029297-.0039063.1738281-.2265625.1738281-.5439453 0-.7705078l-2.2695313-3.0126953c-.1269531-.1679688-.3115234-.2607441-.5205078-.2607441h-15.578125z"/></g></g><g><g><circle cx="43.457" cy="35.622" r=".836"/></g></g><g><g><circle cx="40.457" cy="35.622" r=".836"/></g></g></g><g><g><path d="m43.5402222 42.6697235h-14.2148438c-.2763672 0-.5-.2236328-.5-.5v-2.3847656c0-.2763672.2236328-.5.5-.5h14.2148438c.2763672 0 .5.2236328.5.5v2.3847656c0 .2763672-.2236328.5-.5.5zm-13.7148438-1h13.2148438v-1.3847656h-13.2148438z"/></g></g></g><g><g><g><path d="m33.8947144 34.9656219h-5.0507813c-.2763672 0-.5-.2236328-.5-.5s.2236328-.5.5-.5h5.0507813c.2763672 0 .5.2236328.5.5s-.2236329.5-.5.5z"/></g></g><g><g><path d="m33.8947144 37.2781219h-5.0507813c-.2763672 0-.5-.2236328-.5-.5s.2236328-.5.5-.5h5.0507813c.2763672 0 .5.2236328.5.5s-.2236329.5-.5.5z"/></g></g></g><g><g><g><path d="m44.2111206 50.9968719h-15.5673828c-.5234375 0-1.0039063-.2402344-1.3193359-.6591797l-2.2666016-3.0205078c-.4472656-.5800781-.4472656-1.3984375.0029297-1.9833984l2.2636719-3.0058594c.3144531-.4179688.7958984-.6582031 1.3193359-.6582031h15.578125c.5234375 0 1.0048828.2402344 1.3193359.6582031l2.2666016 3.0097656c.4472656.5800781.4472656 1.3964844-.0009766 1.9824219l-2.2763672 3.0175781c-.3154296.4189454-.7958984.6591797-1.3193359.6591797zm-15.5673828-8.3271484c-.2099609 0-.3945313.0917969-.5205078.2597656l-2.2666016 3.0097656c-.1777344.2304688-.1777344.546875-.0029297.7734375l2.2695313 3.0244141c.1269531.1669922.3115234.2597656.5205078.2597656h15.5673828c.2089844 0 .3935547-.0927734.5205078-.2607422l2.2773438-3.0195313c.0009766-.0019531.0019531-.0029297.0029297-.0039063.1748047-.2265625.1748047-.5429688 0-.7695313l-2.2695313-3.0136719c-.1259766-.1679688-.3105469-.2597656-.5205078-.2597656h-15.578125z"/></g></g><g><g><circle cx="43.304" cy="46.333" r=".836"/></g></g><g><g><circle cx="40.304" cy="46.333" r=".836"/></g></g></g><g><g><g><path d="m33.7423706 45.6765594h-5.0507813c-.2763672 0-.5-.2236328-.5-.5s.2236328-.5.5-.5h5.0507813c.2763672 0 .5.2236328.5.5s-.2236328.5-.5.5z"/></g></g><g><g><path d="m33.7423706 47.9890594h-5.0507813c-.2763672 0-.5-.2236328-.5-.5s.2236328-.5.5-.5h5.0507813c.2763672 0 .5.2236328.5.5s-.2236328.5-.5.5z"/></g></g></g></g><g><g><g><path d="m15.9318237 14.0290966c-.1279297 0-.2558594-.0488281-.3535156-.1464844l-1.1953125-1.1962891-1.1953125 1.1962891c-.1953125.1953125-.5117188.1953125-.7070313 0s-.1953125-.5117188 0-.7070313l1.5488281-1.5498047c.1875-.1875.5195313-.1875.7070313 0l1.5488281 1.5498047c.1953125.1953125.1953125.5117188 0 .7070313-.0976562.0976563-.2255859.1464844-.3535156.1464844z"/></g></g><g><g><path d="m14.3829956 17.7771435c-.2763672 0-.5-.2236328-.5-.5v-5.2978516c0-.2763672.2236328-.5.5-.5s.5.2236328.5.5v5.2978516c0 .2763672-.2236328.5-.5.5z"/></g></g><g><g><path d="m19.7990112 17.7771435c-.1279297 0-.2558594-.0488281-.3535156-.1464844l-1.5498047-1.5488281c-.1953125-.1953125-.1953125-.5117188 0-.7070313s.5117188-.1953125.7070313 0l1.1962891 1.1953125 1.1953125-1.1953125c.1953125-.1953125.5117188-.1953125.7070313 0s.1953125.5117188 0 .7070313l-1.5488281 1.5488281c-.0976564.0976563-.2255861.1464844-.3535158.1464844z"/></g></g><g><g><path d="m19.7990112 17.7771435c-.2763672 0-.5-.2236328-.5-.5v-5.2978516c0-.2763672.2236328-.5.5-.5s.5.2236328.5.5v5.2978516c0 .2763672-.2236328.5-.5.5z"/></g></g></g></g><g><g><g><g><g><g><g><g><path d="m16.5490112 44.3992157c-.3466797 0-.6894531-.0927734-.9960938-.2734375-2.53125-1.5107422-4.7519531-3.5449219-6.4589844-5.9101563-.4736328.3740234-1.1074219.5253906-1.7148438.3710938-.5136719-.1181641-.9550781-.4404297-1.234375-.9033203-.2744141-.4550781-.3564453-1.0068359-.2226563-1.5146484l.7705078-3.1181641c.1240234-.5195313.4482422-.9609375.9121094-1.2382832.4296875-.2783203.9892578-.3632813 1.5195313-.2197266l3.1123047.7597675c.8583984.2128906 1.4833984.9765625 1.5205078 1.8583984.0078125.1875-.0117188.3847656-.0566406.5703125-.1523438.6230469-.6044922 1.1191406-1.1748047 1.3574219 1.3730469 1.8251953 3.1181641 3.3886719 5.0829887 4.5507813.7822456.4628906 1.1435738 1.4179688.8623238 2.2734375-.0029297.0117188-.0068359.0224609-.0107422.0341797h.0009766c-.1884766.5888672-.6279297 1.0517578-1.2050781 1.2714844-.2294921.0869141-.4687499.1308594-.7070312.1308594zm-7.4052734-7.4853516c.1660156 0 .3212891.0820313.4140625.2197266 1.6679688 2.4667969 3.9169922 4.5869141 6.5058594 6.1318359.2519531.1474609.5566406.1728516.8369141.0683594.2910156-.1113281.5126953-.3447266.6074219-.6416016.0009766-.0009766.0009766-.0019531.0009766-.0019531.0029297-.0117188.0068359-.0234375.0097656-.0351563.1396484-.4140625-.0371094-.8789063-.4199219-1.1044922-2.3125-1.3681641-4.3369141-3.2626953-5.8525391-5.4794922-.1083984-.1582031-.1162109-.3642578-.0205078-.53125.0957031-.1660156.2822266-.2597656.46875-.25.4902344.0449219.9208984-.2871094 1.0341797-.7451172.0224609-.0927734.0322266-.1972656.0283203-.2919922-.0185547-.4404297-.3300781-.8232422-.7587891-.9296875l-3.1220703-.7626953c-.2646484-.0712891-.5371094-.03125-.7441406.1015625-.2451172.1464844-.40625.3652344-.4677734.625l-.7734375 3.1289063c-.0673828.2578125-.0283203.5224609.1103516.7509766.1386719.2294922.3564453.3886719.6132813.4482422.4277344.1074219.8769531-.0800781 1.0986328-.4550781.0869141-.1484375.2441406-.2402344.4150391-.2460938z"/></g></g></g></g></g><g><g><g><g><g><path d="m44.3937378 21.4734325c-.171875 0-.3457031-.0224609-.515625-.0693359l-3.1113281-.7587891c-.859375-.2128906-1.4833984-.9775391-1.5195313-1.859375-.0078125-.1894531.0117188-.3867188.0556641-.5703125.1533203-.6220703.6054688-1.1181641 1.1748047-1.3564453-1.3720703-1.8242188-3.1152344-3.3876953-5.0820313-4.5507813-.7792969-.4609375-1.1416016-1.4101563-.8662109-2.2636719.0039063-.015625.0078125-.0302734.0136719-.0449219v-.0009764c.1884766-.5888672.6289063-1.0517578 1.2070313-1.2705078.5654297-.2148438 1.1855469-.1630859 1.7001953.1445313 2.5302734 1.5078125 4.7519531 3.5429688 6.4589844 5.9091797.4765625-.3740234 1.1132813-.5234375 1.7158203-.3710938.5136719.1181641.9550781.4404297 1.234375.9042969.2744141.4550781.3554688 1.0068359.2216797 1.5146484l-.7705079 3.1162109c-.1240234.5195313-.4472656.9609375-.9111328 1.2382813-.2939453.1894531-.6455078.2890624-1.0058594.2890624zm-3.1542969-3.7685546c-.4501953 0-.8574219.3115234-.9648438.7480469-.0214844.0898438-.0322266.1943359-.0273438.2919922.0175781.4414063.3291016.8232422.7578125.9296875l3.1220703.7617188c.2646484.0703125.5371094.03125.7460938-.1015625.2441406-.1464844.4042969-.3652344.4658203-.6240234l.7734375-3.1289063c.0683594-.2578125.0283203-.5214844-.109375-.7509766-.1386719-.2294922-.3564453-.3886719-.6132813-.4482422-.4277344-.1083984-.8779297.0800781-1.1005859.4560547-.0869141.1474609-.2431641.2402344-.4150391.2451172-.1630859.0019531-.3330078-.078125-.4287109-.2197266-1.6679688-2.46875-3.9179688-4.5888672-6.5058594-6.1318359-.2529297-.1503906-.5576172-.1757813-.8349609-.0693359-.2919922.1113281-.5146484.3447266-.6103516.6425781v.0029297c-.0029297.0107422-.0068359.0214844-.0097656.0322266-.1386719.4150391.0380859.8808594.4199219 1.1064453 2.3154297 1.3701172 4.3388672 3.2646484 5.8525391 5.4794922.1083984.1582031.1162109.3652344.0205078.53125-.0957031.1669922-.2802734.2666016-.46875.25-.0234374-.0019533-.0468749-.0029298-.0693359-.0029298z"/></g></g></g></g></g></g></g></g></g></svg>