<svg id="Layer_5" enable-background="new 0 0 64 64" height="512" viewBox="0 0 64 64" width="512" xmlns="http://www.w3.org/2000/svg"><g><path d="m15 31h6v2h-6z"/><path d="m15 35h6v2h-6z"/><path d="m61 27.184v-2.184c0-1.654-1.346-3-3-3h-3v2h3c.551 0 1 .449 1 1v2.184c-1.161.414-2 1.514-2 2.816 0 1.654 1.346 3 3 3s3-1.346 3-3c0-1.302-.839-2.402-2-2.816zm-1 3.816c-.551 0-1-.449-1-1s.449-1 1-1 1 .449 1 1-.449 1-1 1z"/><path d="m60 14c-1.302 0-2.402.839-2.816 2h-4.254c.042-.328.07-.661.07-1 0-4.411-3.589-8-8-8-.067 0-.134.001-.201.003-1.871-3.67-5.642-6.003-9.799-6.003-3.472 0-6.691 1.619-8.768 4.369-.72-.245-1.467-.369-2.232-.369-2.719 0-5.175 1.583-6.322 4.007-3.711.169-6.678 3.242-6.678 6.993h-4.184c-.414-1.161-1.514-2-2.816-2-1.654 0-3 1.346-3 3s1.346 3 3 3c1.302 0 2.402-.839 2.816-2h4.479c.863 2.888 3.541 5 6.705 5h13v2h-20v10h-4v24h20.101c.464 2.279 2.485 4 4.899 4s4.435-1.721 4.899-4h20.101v-24h-4v-10h-20v-2h12c3.35 0 6.221-2.072 7.411-5h4.773c.414 1.161 1.514 2 2.816 2 1.654 0 3-1.346 3-3s-1.346-3-3-3zm-56 4c-.551 0-1-.449-1-1s.449-1 1-1 1 .449 1 1-.449 1-1 1zm9 9h18v1c0 1.654 1.346 3 3 3h7c.551 0 1 .449 1 1s-.449 1-1 1h-7c-1.654 0-3 1.346-3 3v1h-2.729l-.876 2.734c-.772.248-1.519.556-2.229.919l-2.549-1.312-5.274 5.274 1.312 2.549c-.363.71-.671 1.457-.919 2.229l-2.736.878v2.729h-2zm30.345 20.662c.486.869.875 1.81 1.153 2.796l.146.517 2.356.754v1.271h-4.051c-.507-5.598-5.221-10-10.949-10s-10.442 4.402-10.949 10h-4.051v-1.271l2.356-.755.146-.517c.279-.986.667-1.927 1.153-2.796l.262-.468-1.129-2.195 3.211-3.211 2.195 1.129.468-.262c.869-.486 1.81-.875 2.796-1.153l.517-.146.754-2.355h4.541l.755 2.356.517.146c.986.279 1.927.667 2.796 1.153l.468.262 2.195-1.129 3.211 3.211-1.129 2.195zm-8.592 2.171c-.524-.347-1.116-.602-1.753-.732v-4.042c1.733.193 3.316.88 4.611 1.916zm-3.753-.732c-.637.13-1.228.384-1.753.732l-2.858-2.858c1.295-1.036 2.878-1.723 4.611-1.916zm-6.025-.712 2.858 2.858c-.348.525-.602 1.116-.732 1.753h-4.042c.193-1.733.88-3.317 1.916-4.611zm7.025 2.611c1.302 0 2.402.839 2.816 2h-5.631c.413-1.161 1.513-2 2.815-2zm4.899 2c-.13-.637-.384-1.229-.732-1.753l2.858-2.858c1.036 1.295 1.724 2.878 1.916 4.611zm18.101-16v20h-20v1c0 1.654-1.346 3-3 3s-3-1.346-3-3v-1h-20v-20h2v18h42v-18zm-4-10v26h-2v-2.729l-2.734-.876c-.248-.772-.556-1.519-.919-2.229l1.312-2.549-5.274-5.274-2.549 1.312c-.71-.363-1.457-.671-2.229-.919l-.878-2.736h-2.729v-1c0-.551.449-1 1-1h7c1.654 0 3-1.346 3-3s-1.346-3-3-3h-7c-.551 0-1-.449-1-1v-1zm-6-6h-27c-2.757 0-5-2.243-5-5s2.243-5 5-5c.062 0 .122.005.182.009l.854.052.25-.712c.702-2.003 2.596-3.349 4.714-3.349.748 0 1.475.167 2.161.497l.796.383.479-.743c1.668-2.59 4.496-4.137 7.564-4.137 3.599 0 6.844 2.138 8.269 5.446l.294.683.739-.085c.229-.026.461-.044.698-.044 3.309 0 6 2.691 6 6s-2.691 6-6 6zm15-3c-.551 0-1-.449-1-1s.449-1 1-1 1 .449 1 1-.449 1-1 1z"/><path d="m61 9v-2.184c1.161-.414 2-1.514 2-2.816 0-1.654-1.346-3-3-3s-3 1.346-3 3c0 1.302.839 2.402 2 2.816v2.184c0 .551-.449 1-1 1h-3v2h3c1.654 0 3-1.346 3-3zm-1-6c.551 0 1 .449 1 1s-.449 1-1 1-1-.449-1-1 .449-1 1-1z"/><path d="m5 27.184v-2.184c0-.551.449-1 1-1h3v-2h-3c-1.654 0-3 1.346-3 3v2.184c-1.161.414-2 1.514-2 2.816 0 1.654 1.346 3 3 3s3-1.346 3-3c0-1.302-.839-2.402-2-2.816zm-1 3.816c-.551 0-1-.449-1-1s.449-1 1-1 1 .449 1 1-.449 1-1 1z"/><path d="m3 6.816v2.184c0 1.654 1.346 3 3 3h3v-2h-3c-.551 0-1-.449-1-1v-2.184c1.161-.414 2-1.514 2-2.816 0-1.654-1.346-3-3-3s-3 1.346-3 3c0 1.302.839 2.402 2 2.816zm1-3.816c.551 0 1 .449 1 1s-.449 1-1 1-1-.449-1-1 .449-1 1-1z"/><path d="m35 5v2c2.206 0 4 1.794 4 4h2c0-3.309-2.691-6-6-6z"/><path d="m17 16h-2c0 1.654 1.346 3 3 3h5v-2h-5c-.551 0-1-.449-1-1z"/><path d="m25 17h2v2h-2z"/></g></svg>