<svg height="512" viewBox="0 0 64 64" width="512" xmlns="http://www.w3.org/2000/svg"><g id="Icons" fill="rgb(0,0,0)"><path d="m10.677 16.25-2.982 5.165c-.41.727-.153 1.639.556 2.038l2.533 1.464c-1.525 4.577-1.525 9.575 0 14.166l-2.529 1.461c-.716.402-.971 1.311-.558 2.045l2.979 5.16c.275.478.767.753 1.338.75l-.028-1c-.164.01-.351-.09-.443-.25l-2.978-5.155c-.132-.234-.065-.54.185-.681l2.89-1.67c.208-.121.302-.373.222-.6-1.63-4.614-1.63-9.688 0-14.287.081-.227-.012-.479-.221-.6l-2.895-1.672c-.241-.136-.312-.444-.182-.674l2.979-5.158c.133-.227.425-.33.679-.179l2.9 1.67c.208.121.473.075.629-.108 3.184-3.721 7.573-6.258 12.361-7.144.237-.044.409-.25.409-.492v-3.339c0-.276.224-.5.5-.5h5.96c.275 0 .5.224.5.5v3.34c0 .241.172.448.409.492 4.787.885 9.177 3.422 12.36 7.144.156.183.423.229.629.108l2.907-1.674c.233-.139.534-.055.671.181l2.978 5.155c.136.243.056.547-.185.682l-2.89 1.67c-.209.121-.302.373-.222.6 1.63 4.613 1.63 9.687 0 14.287-.08.227.013.479.222.6l2.895 1.673c.235.132.315.437.183.674l-2.981 5.161c-.089.155-.252.25-.429.25-.004 0-.009 0-.014 0l-.027 1h.042c.534 0 1.027-.285 1.294-.75l2.983-5.166c.406-.723.154-1.638-.556-2.038l-2.533-1.464c1.525-4.578 1.525-9.576 0-14.166l2.528-1.461c.715-.402.967-1.317.558-2.046l-2.98-5.162c-.426-.731-1.351-.954-2.041-.542l-2.545 1.465c-3.215-3.62-7.539-6.119-12.256-7.084v-2.929c0-.827-.673-1.5-1.5-1.5h-5.96c-.827 0-1.5.673-1.5 1.5v2.928c-4.718.965-9.042 3.464-12.257 7.083l-2.537-1.461c-.688-.41-1.617-.203-2.05.54z"/><path d="m47.595 37.047c3.453-10.441-4.41-21.447-15.595-21.447-11.186 0-19.049 11.01-15.595 21.447l.949-.314c-3.239-9.789 4.14-20.133 14.646-20.133 10.495 0 17.89 10.332 14.646 20.133z"/><path d="m27.723 23.584-6 4c-.14.093-.223.249-.223.416s.083.323.223.416l6 4 .555-.832-5.377-3.584 5.376-3.584z"/><path d="m36.278 32.416 5.999-4c.139-.093.223-.249.223-.416s-.084-.323-.223-.416l-6-4-.555.832 5.377 3.584-5.375 3.583z"/><path d="m25.675 27.5h12.649v1h-12.649z" transform="matrix(.316 -.949 .949 .316 -4.683 49.502)"/><circle cx="43" cy="49" r="1"/><circle cx="43" cy="45" r="1"/><circle cx="41" cy="47" r="1"/><circle cx="45" cy="47" r="1"/><path d="m28 47.5h2v1h-2z"/><path d="m34 47.5h2v1h-2z"/><path d="m23 45.5c-.276 0-.5-.224-.5-.5 0-.827-.673-1.5-1.5-1.5s-1.5.673-1.5 1.5c0 .276-.224.5-.5.5-.827 0-1.5.673-1.5 1.5s.673 1.5 1.5 1.5c.276 0 .5.224.5.5 0 .827.673 1.5 1.5 1.5s1.5-.673 1.5-1.5c0-.276.224-.5.5-.5.827 0 1.5-.673 1.5-1.5s-.673-1.5-1.5-1.5zm0 2c-.827 0-1.5.673-1.5 1.5 0 .276-.224.5-.5.5s-.5-.224-.5-.5c0-.827-.673-1.5-1.5-1.5-.276 0-.5-.224-.5-.5s.224-.5.5-.5c.827 0 1.5-.673 1.5-1.5 0-.276.224-.5.5-.5s.5.224.5.5c0 .827.673 1.5 1.5 1.5.276 0 .5.224.5.5s-.224.5-.5.5z"/><path d="m38.5 41v-2c0-.827-.673-1.5-1.5-1.5h-10c-.827 0-1.5.673-1.5 1.5v2c0 .827.673 1.5 1.5 1.5h10c.827 0 1.5-.673 1.5-1.5zm-12 0v-2c0-.276.224-.5.5-.5h10c.275 0 .5.224.5.5v2c0 .276-.225.5-.5.5h-10c-.276 0-.5-.224-.5-.5z"/><path d="m13.5 44v10.19c0 3.479 2.831 6.31 6.31 6.31 2.712 0 5.117-1.732 5.984-4.312l.448-1.343c.072-.207.264-.345.478-.345h.38v-1h-.38c-.638 0-1.209.408-1.424 1.022l-.45 1.349c-.729 2.171-2.753 3.629-5.036 3.629-2.928 0-5.31-2.382-5.31-5.31v-10.19c0-1.93 1.57-3.5 3.5-3.5h6c.276 0 .5-.224.5-.5v-1c0-.827-.673-1.5-1.5-1.5h-4c-.827 0-1.5.673-1.5 1.5v.551c-2.244.252-4 2.139-4 4.449zm5-5c0-.276.224-.5.5-.5h4c.276 0 .5.224.5.5v.5h-5z"/><path d="m37.756 54.838.449 1.35c.86 2.579 3.266 4.312 5.985 4.312 3.479 0 6.31-2.831 6.31-6.31v-10.19c0-2.31-1.756-4.197-4-4.449v-.551c0-.827-.673-1.5-1.5-1.5h-4c-.827 0-1.5.673-1.5 1.5v1c0 .276.224.5.5.5h6c1.93 0 3.5 1.57 3.5 3.5v10.19c0 2.928-2.382 5.31-5.31 5.31-2.289 0-4.313-1.458-5.036-3.628l-.452-1.357c-.213-.607-.784-1.015-1.422-1.015h-.38v1h.38c.214 0 .407.139.476.338zm2.744-15.338v-.5c0-.276.225-.5.5-.5h4c.275 0 .5.224.5.5v.5z"/><path d="m32 56.5c1.93 0 3.5-1.57 3.5-3.5s-1.57-3.5-3.5-3.5-3.5 1.57-3.5 3.5 1.57 3.5 3.5 3.5zm0-6c1.379 0 2.5 1.122 2.5 2.5s-1.121 2.5-2.5 2.5c-1.378 0-2.5-1.122-2.5-2.5s1.122-2.5 2.5-2.5z"/></g></svg>