<?xml version="1.0"?>
<svg xmlns="http://www.w3.org/2000/svg" viewBox="0 0 60 60"><title/><g data-name="Outer Lines" id="Outer_Lines"><path d="M51,40a1,1,0,0,0,1-1V38a1,1,0,0,0-2,0v1A1,1,0,0,0,51,40Z"/><path d="M49,40H48a1,1,0,0,0,0,2h1a1,1,0,0,0,0-2Z"/><path d="M51,42a1,1,0,0,0-1,1v1a1,1,0,0,0,2,0V43A1,1,0,0,0,51,42Z"/><path d="M55,41a1,1,0,0,0-1-1H53a1,1,0,0,0,0,2h1A1,1,0,0,0,55,41Z"/><path d="M34,40H32V38a1,1,0,0,0-2,0v2H28a1,1,0,0,0,0,2h2v2a1,1,0,0,0,2,0V42h2a1,1,0,0,0,0-2Z"/><path d="M39,44H38a1,1,0,0,0,0,2h1a1,1,0,0,0,0-2Z"/><path d="M44,44H43a1,1,0,0,0,0,2h1a1,1,0,0,0,0-2Z"/><path d="M59.981,40.908A9.2,9.2,0,0,0,52,32.058V4a4,4,0,0,0-4-4H4A4,4,0,0,0,0,4V44a4,4,0,0,0,4,4H16v2.465l-5.555,3.7a.926.926,0,0,0-.086.08,1.034,1.034,0,0,0-.1.09.97.97,0,0,0-.138.2,1.018,1.018,0,0,0-.05.092.962.962,0,0,0-.071.353L10,55v3a2,2,0,0,0,2,2H40a2,2,0,0,0,2-2V55A.189.189,0,0,0,42,54.977a.972.972,0,0,0-.071-.354.8.8,0,0,0-.041-.07,1.011,1.011,0,0,0-.153-.226.892.892,0,0,0-.1-.085,1.141,1.141,0,0,0-.111-.1l-5.723-3.5.074-.132A1,1,0,0,1,36.745,50h8.51a1,1,0,0,1,.873.514l3.74,6.715A5.409,5.409,0,0,0,60,54.59v-13.3c0-.056-.007-.11-.008-.165S60,41.041,60,41A.937.937,0,0,0,59.981,40.908ZM4,2H48a2,2,0,0,1,2,2V32.056A8.907,8.907,0,0,0,44.3,35h-6.59A8.926,8.926,0,0,0,22.6,38H2V4A2,2,0,0,1,4,2ZM2,44V40H22.1c-.041.3-.067.6-.079.907,0,.032-.019.06-.019.093s.008.081.008.123S22,41.234,22,41.29V46H4A2,2,0,0,1,2,44Zm20,4v2H18V48Zm-4.7,4H22v2H14.3ZM12,56H22.208a5.312,5.312,0,0,0,1.032,2H12Zm28,2H31.6a5.527,5.527,0,0,0,.539-.773L32.817,56H40Zm-2.552-4H33.931l.893-1.6ZM58,54.59a3.41,3.41,0,0,1-6.386,1.664l-3.738-6.713A3,3,0,0,0,45.255,48h-8.51a3,3,0,0,0-2.621,1.541l-3.736,6.71A3.409,3.409,0,0,1,24,54.59V46.633A8.976,8.976,0,0,0,26.5,48.8a.983.983,0,0,0,.5.135,1,1,0,0,0,.5-1.866,7.026,7.026,0,0,1-3.492-5.942A7.159,7.159,0,0,1,30.942,34a6.852,6.852,0,0,1,5.434,2.531,6.987,6.987,0,0,1,1.4,2.719,1,1,0,0,0,.968.75A1.033,1.033,0,0,0,39,39.969a1,1,0,0,0,.719-1.219A9.037,9.037,0,0,0,39.051,37h3.9a9.037,9.037,0,0,0-.666,1.75A1,1,0,0,0,43,39.969a1.033,1.033,0,0,0,.251.031,1,1,0,0,0,.968-.75A7.045,7.045,0,0,1,51,34h.058a7.158,7.158,0,0,1,6.934,7.121A7.021,7.021,0,0,1,54.5,47.064a1,1,0,1,0,1,1.731A8.969,8.969,0,0,0,58,46.634Z"/><path d="M18.293,27.707a1,1,0,0,0,1.414-1.414L12.414,19l7.293-7.293a1,1,0,0,0-1.414-1.414l-8,8a1,1,0,0,0,0,1.414Z"/><path d="M32.293,27.707a1,1,0,0,0,1.414,0l8-8a1,1,0,0,0,0-1.414l-8-8a1,1,0,0,0-1.414,1.414L39.586,19l-7.293,7.293A1,1,0,0,0,32.293,27.707Z"/><path d="M22.649,27.937A1.029,1.029,0,0,0,23,28a1,1,0,0,0,.937-.649l6-16a1,1,0,1,0-1.874-.7l-6,16A1,1,0,0,0,22.649,27.937Z"/></g></svg>
