<svg id="Layer_1" viewBox="0 0 64 64" xmlns="http://www.w3.org/2000/svg" data-name="Layer 1"><path d="m27.80111 45.43994h8.32031c1.6543 0 3-1.3457 3-3v-3.04004c0-1.6543-1.3457-3-3-3h-8.32031c-1.6543 0-3 1.3457-3 3v3.04004c0 1.6543 1.3457 3 3 3zm-1-6.04004c0-.55127.44824-1 1-1h8.32031c.55176 0 1 .44873 1 1v3.04004c0 .55127-.44824 1-1 1h-8.32031c-.55176 0-1-.44873-1-1z"/><path d="m18.64096 49.72021c0 .55225.44727 1 1 1 .04669-.00696 2.62469.0119 2.6684-.00562.43097.63672.98077 1.18652 1.61749 1.61749-.02264.02258.00452 2.64099-.00562 2.66791.02179 1.31396 1.97821 1.31464 2-.00006v-1.80151c.48584.11554 1.00427.17108 1.52051.16144v1.64014c0 .55225.44727 1 1 1s1-.44775 1-1v-1.64014h1.51953v1.64014c0 .55225.44727 1 1 1s1-.44775 1-1v-1.64014h1.51953v1.64014c0 .55225.44727 1 1 1s1-.44775 1-1v-1.64014c.5163.00964 1.03461-.0459 1.52051-.16144v1.80157c.02197 1.31409 1.97809 1.31464 2-.00006-.01282-.0434.01617-2.62653-.00562-2.66791.63672-.43097 1.18652-.98071 1.61749-1.61743.02258.02258 2.64148-.00452 2.6684.00562 1.31403-.02191 1.3147-1.97809-.00006-2h-1.802c.11554-.48572.17108-1.00397.16144-1.52002h1.64062c.55273 0 1-.44775 1-1s-.44727-1-1-1h-1.64062v-1.52002h1.64062c.55273 0 1-.44775 1-1s-.44727-1-1-1h-1.64062v-1.52002h1.64062c.55273 0 1-.44775 1-1s-.44727-1-1-1h-1.64062c.00964-.51611-.04578-1.0343-.16132-1.52002h1.80194c1.31415-.02209 1.3147-1.97803-.00006-2-.04285.01276-2.6272-.01605-2.66803.00555-1.07947-1.59515-2.90552-2.64569-4.97253-2.64569h-9.35938c-2.06702 0-3.89307 1.05054-4.97253 2.64569-.02216-.02246-2.6416.00446-2.66809-.00562-1.31403.02191-1.3147 1.97815.00006 2.00006-.00006 0 1.80188 0 1.80188 0-.11554.48566-.17096 1.00397-.16132 1.52002h-1.64062c-.55273 0-1 .44775-1 1s.44727 1 1 1h1.64062v1.52002h-1.64062c-.55273 0-1 .44775-1 1s.44727 1 1 1h1.64062v1.52002h-1.64062c-.55273 0-1 .44775-1 1s.44727 1 1 1h1.64062c-.00964.51617.0459 1.03424.16144 1.52002h-1.80206c-.55273 0-1 .44775-1 1zm4.64062-11.72021c0-2.20557 1.79395-4 4-4h9.35938c2.20605 0 4 1.79443 4 4v9.35986c0 2.20557-1.79395 4-4 4h-9.35938c-2.20605 0-4-1.79443-4-4z"/><path d="m55.96127 56v-16.81006c-.03113-1.31201-1.97101-1.31946-2 0v16.81006c0 2.20557-1.79395 4-4 4h-36c-2.20605 0-4-1.79443-4-4v-16.7998c-.00818-1.30267-1.98419-1.32086-2 .00006 0-.00006 0 16.79974 0 16.79974 0 3.30859 2.69141 6 6 6h36c3.30859 0 6-2.69141 6-6z"/><path d="m34.96029 15.11182c.30957 0 .61426-.14307.81055-.4126.76172-1.05029 2.03809-1.69922 3.33594-1.69922 1.33282.02606 1.38458-1.96338.04779-2-1.90912.00928-3.86127.95166-5.00287 2.52441-.48822.63049.02124 1.61072.80859 1.5874z"/><path d="m39.14193 16.53174c-1.68555-.45264-3.54688.15674-4.6377 1.51709-.3457.43066-.27637 1.06006.1543 1.40576.42834.34357 1.05914.27826 1.40625-.15479.58203-.72656 1.65918-1.07812 2.55762-.83643 1.2724.32104 1.78479-1.56934.51953-1.93164z"/><path d="m20.34213 23.05029c.21777.1665.51172.2373.77441.19727 4.40723-.6958 10.19434 3.51562 10.25293 3.55859.35468.24805.82971.24774 1.18457-.00055.05762-.04242 5.83203-4.24994 10.25195-3.55804.27246.0415.55664-.03125.77441-.19727.42383-.32373.7041-.5376 2.375-15.64258.05664-.51318-.28711-.98535-.79297-1.08936-.40601-.08356-9.25647-1.81897-13.20142 3.65576-3.94708-5.47607-12.79675-3.73975-13.20093-3.65576-.50586.104-.84961.57617-.79297 1.08936 1.6709 15.10498 1.95117 15.31885 2.375 15.64258zm23.51855-14.90723c-.60156 5.37207-1.30176 11.06055-1.64746 13.03857-3.4212-.16272-7.16791 1.71619-9.23358 2.95917.07745-8.22913.04901-10.97449-.00934-11.95758 2.20099-4.60553 8.53278-4.32104 10.89038-4.04016zm-12.90845 4.0401c-.05835.98303-.08679 3.72827-.00934 11.95758-2.05151-1.24316-5.84033-3.1264-9.23456-2.95911-.34473-1.97803-1.04492-7.66797-1.64746-13.04053 2.35956-.28473 8.68567-.578 10.89136 4.04205z"/><path d="m24.77572 13c1.31116.00665 2.60687.63806 3.37598 1.69922.19629.26953.50098.4126.81055.4126.78632.02271 1.29779-.95648.80853-1.5874-1.14154-1.57275-3.06244-2.57812-5.00287-2.52441-.55273.00439-.99707.45605-.99219 1.0083.00488.54932.45117.9917 1 .9917z"/><path d="m24.7806 16.53174c-1.26379.36176-.75439 2.25452.51959 1.93164.8974-.24219 1.97455.10986 2.55756.83643.82416 1.01727 2.37439-.22845 1.56049-1.25104-1.09076-1.3598-2.95306-1.96918-4.63763-1.51703z"/><path d="m18.96127 31h26c3.30859 0 6-2.69141 6-6v-17c0-3.30859-2.69141-6-6-6h-26c-3.30859 0-6 2.69141-6 6v17c0 3.30859 2.69141 6 6 6zm-4-23c0-2.20557 1.79395-4 4-4h26c2.20605 0 4 1.79443 4 4v17c0 2.20557-1.79395 4-4 4h-26c-2.20605 0-4-1.79443-4-4z"/><path d="m54.44857 15.83643c-1.12756-.66931-2.15845.98865-1.05072 1.70117 5.91705 3.55219 5.53949 12.52325-.55182 15.62457l.69629-2.22272c.37299-1.25861-1.49799-1.84796-1.9082-.59766-.01825.15479-1.53534 4.64001-1.37836 4.66235.03754.388.30121.73474.69672.85815l4.26855 1.33643c1.23041.39832 1.85089-1.5213.5976-1.9082.00006 0-1.71442-.5368-1.71442-.5368 7.16144-3.9563 7.43805-14.66437.34436-18.9173z"/><path d="m9.89633 34.75366-1.71436.53687c-1.08179.32465-.81586 1.97217.29889 1.95459.09857 0 .19916-.01514.29877-.04639l4.26758-1.33643c.39557-.12341.65924-.46997.69666-.85803.16394-.01074-1.36536-4.51758-1.37726-4.66254-.41156-1.24579-2.28046-.66559-1.90826.59772l.69574 2.22253c-6.09467-3.10535-6.46729-12.07056-.55103-15.62439 1.10419-.70764.07825-2.37384-1.05298-1.70117-7.0929 4.25519-6.81482 14.96265.34625 18.91724z"/><path d="m38.12136 46.95996h-12.32025c-1.31073.02087-1.31744 1.97766 0 2h12.32031c1.31073-.02094 1.31744-1.97772-.00006-2z"/></svg>