<svg id="Layer_1" enable-background="new 0 0 74 74" height="512" viewBox="0 0 74 74" width="512" xmlns="http://www.w3.org/2000/svg"><g><path d="m56.01 40.82c-.01-.11.07-.19.14-.22.57-.26 1.15-.58 1.7-.95.71-.47 1.16-1.16 1.28-1.97s-.11-1.63-.65-2.29c-1.16-1.42-2.48-3.28-3.38-4.58-.69-1-1.01-2.2-.9-3.37.1-1 .08-2.09-.06-3.23-1.01-8.13-7.14-15-15.26-17.08-2.64-.68-5.53-1.02-8.59-1.02-7.38 0-12.12 3.99-14.79 7.33-4.31 5.39-6.44 13.13-5.16 18.82.32 1.44.73 2.97 1.16 4.59 2.14 8.06 4.8 18.09-1.31 24.69-1.19 1.28-4.92 5.03-4.96 5.07-.29.29-.29.77 0 1.06s.77.29 1.06 0c.15-.15 3.79-3.81 5-5.11 6.68-7.21 3.9-17.68 1.66-26.1-.43-1.61-.83-3.12-1.14-4.53-1-4.46.36-11.92 4.87-17.56 2.47-3.09 6.84-6.77 13.62-6.77 2.94 0 5.7.33 8.22.97 7.52 1.93 13.2 8.29 14.14 15.81.13 1.03.15 2.01.06 2.9-.15 1.52.26 3.08 1.16 4.37.92 1.33 2.26 3.21 3.45 4.67.27.33.39.73.33 1.12-.06.38-.28.71-.63.94-.49.33-1 .61-1.5.84-.67.31-1.08 1-1.01 1.72.06.64.98 2.47.98 2.47.09.1.25.3.28.32 0 0-.15.27-1.22.62-.28.09-.48.34-.51.63s.11.58.36.73c.12.08.48.36.49.67.01.32-.34.76-.97 1.2-.64.45-1.05 1.14-1.08 1.83-.04.79.35 1.55 1.17 2.27.36.32.46.82.26 1.34-.42 1.08-2.21 2.32-5.85 2.23-6.56-.14-7.37 2.37-7.64 4.74-.4 3.49-1.36 4.85-3.37 6.57-.31.27-.35.74-.08 1.06.15.17.36.26.57.26.17 0 .35-.06.49-.18 2.22-1.91 3.43-3.6 3.88-7.54.18-1.58.4-3.56 6.12-3.41 5.57.11 6.98-2.41 7.28-3.19.43-1.12.18-2.27-.67-3.01-.31-.27-.68-.67-.66-1.06.01-.28.24-.54.45-.68 1.1-.77 1.64-1.61 1.6-2.49-.02-.38-.14-.7-.3-.97.62-.33.99-.72 1.12-1.19.22-.77-.3-1.38-.57-1.71-.01.01-.6-1.2-.64-1.63z"/><path d="m66.79 37.61c-.22-.35-.69-.45-1.04-.23s-.45.69-.23 1.04c3.73 5.83 2.02 13.6-3.81 17.32-.35.22-.45.69-.23 1.04.14.22.39.35.63.35.14 0 .28-.04.4-.12 6.54-4.18 8.45-12.88 4.28-19.4z"/><path d="m65.13 47.41c.6-2.72.1-5.51-1.39-7.85-.22-.35-.69-.45-1.04-.23s-.45.69-.23 1.04c2.65 4.14 1.44 9.67-2.71 12.32-.35.22-.45.69-.23 1.04.14.22.39.35.63.35.14 0 .28-.04.4-.12 2.36-1.51 3.98-3.83 4.57-6.55z"/><path d="m60.69 41.51c-.22-.35-.69-.45-1.04-.23s-.45.69-.23 1.04c1.57 2.46.85 5.74-1.61 7.32-.35.22-.45.69-.23 1.04.14.22.39.35.63.35.14 0 .28-.04.4-.12 3.17-2.03 4.1-6.24 2.08-9.4z"/><path d="m38.8 39.55 2.04 1.3c.65.42 1.48.32 2.03-.22l1.45-1.45c.54-.54.63-1.39.22-2.03l-1.3-2.03c-.04-.06 0-.12.01-.14.61-1.04 1.08-2.16 1.38-3.33.01-.02.03-.09.1-.11l2.36-.52c.74-.16 1.28-.83 1.28-1.59v-2.05c0-.77-.53-1.42-1.28-1.59l-2.35-.52c-.05-.01-.08-.06-.1-.11-.3-1.17-.77-2.29-1.38-3.33-.01-.02-.05-.09-.01-.14l1.3-2.03c.41-.64.32-1.49-.22-2.03l-1.45-1.45c-.55-.54-1.38-.64-2.03-.22l-2.04 1.3c-.06.04-.12 0-.14-.01-1.04-.62-2.16-1.08-3.33-1.37-.04-.01-.1-.04-.11-.1l-.52-2.36c-.16-.74-.83-1.28-1.59-1.28h-2.05c-.76 0-1.43.54-1.59 1.28l-.52 2.36c-.01.05-.06.08-.11.1-1.17.3-2.29.77-3.33 1.38-.02.01-.09.04-.14.01l-2.03-1.3c-.65-.42-1.48-.32-2.03.22l-1.45 1.44c-.54.54-.63 1.39-.22 2.03l1.3 2.03c.04.06 0 .12-.01.14-.62 1.04-1.08 2.16-1.39 3.34-.01.04-.04.1-.1.11l-2.35.52c-.75.17-1.28.82-1.28 1.59v2.05c0 .76.54 1.43 1.28 1.59l2.36.52c.05.01.08.06.1.11.3 1.17.77 2.29 1.38 3.33.01.02.04.09.01.14l-1.3 2.03c-.41.64-.32 1.49.22 2.03l1.45 1.45c.54.54 1.39.63 2.03.22l2.03-1.3c.06-.04.12 0 .14.01 1.04.61 2.16 1.08 3.33 1.38.04.01.1.04.11.1l.52 2.36c.17.75.82 1.28 1.59 1.28h2.05c.76 0 1.43-.54 1.59-1.28l.52-2.36c.01-.05.06-.08.11-.1 1.16-.3 2.28-.76 3.33-1.38 0-.02.07-.05.13-.02zm-3.84-.07c-.61.16-1.07.63-1.2 1.23l-.52 2.36c-.01.06-.07.1-.13.1h-2.05c-.06 0-.11-.04-.13-.1l-.52-2.36c-.13-.6-.59-1.07-1.2-1.23-1.03-.27-2.02-.68-2.94-1.22-.26-.16-.56-.23-.85-.23-.3 0-.6.08-.87.25l-2.03 1.3c-.05.03-.12.02-.16-.02l-1.45-1.45c-.04-.04-.05-.11-.02-.16l1.3-2.03c.33-.52.34-1.18.02-1.72-.54-.92-.95-1.91-1.22-2.94-.16-.61-.63-1.07-1.22-1.2l-2.36-.52c-.06-.01-.1-.07-.1-.13v-2.05c0-.06.04-.11.1-.13l2.35-.52c.6-.13 1.07-.59 1.23-1.2.27-1.04.68-2.03 1.22-2.95.32-.54.32-1.2-.02-1.72l-1.3-2.03c-.03-.05-.03-.12.02-.16l1.45-1.44c.04-.04.11-.05.16-.02l2.03 1.3c.52.33 1.17.34 1.71.02.92-.54 1.91-.95 2.94-1.22.61-.16 1.07-.63 1.2-1.23l.52-2.36c.01-.06.06-.1.13-.1h2.05c.06 0 .11.04.13.1l.52 2.36c.13.6.59 1.07 1.2 1.23 1.02.26 2.01.67 2.93 1.21.54.32 1.19.31 1.71-.02l2.04-1.3c.05-.03.12-.03.16.02l1.45 1.45c.04.04.05.11.02.16l-1.3 2.04c-.33.52-.34 1.18-.02 1.72.54.92.95 1.91 1.22 2.94.16.61.63 1.07 1.23 1.2l2.35.52c.06.01.1.06.1.13v2.05c0 .06-.04.11-.1.13l-2.36.52c-.6.13-1.07.59-1.22 1.2-.27 1.03-.68 2.02-1.22 2.94-.32.54-.31 1.2.02 1.71l1.3 2.03c.03.05.03.12-.02.16l-1.45 1.45c-.04.04-.11.05-.16.02l-2.04-1.3c-.52-.33-1.17-.34-1.71-.02-.91.56-1.9.97-2.92 1.23z"/><path d="m32.09 21.47c-3.82 0-6.93 3.11-6.93 6.93s3.11 6.93 6.93 6.93 6.93-3.11 6.93-6.93c-.01-3.82-3.11-6.93-6.93-6.93zm0 12.36c-3 0-5.43-2.44-5.43-5.43s2.44-5.43 5.43-5.43 5.43 2.43 5.43 5.43c-.01 3-2.44 5.43-5.43 5.43z"/></g></svg>