<svg id="Layer_1" enable-background="new 0 0 512 512" viewBox="0 0 512 512" xmlns="http://www.w3.org/2000/svg"><path d="m330.472 326.377v-10.301h21.449c4.418 0 8-3.582 8-8v-23.974h5.035c9.925 0 18-8.075 18-18v-30.485c0-9.925-8.075-18-18-18h-5.035v-20.608c0-4.418-3.582-8-8-8h-51.007c-7.574-17.745-25.249-29.687-44.915-29.687-19.665 0-37.34 11.941-44.914 29.687h-51.007c-4.418 0-8 3.582-8 8v20.608h-5.035c-9.925 0-18 8.075-18 18v30.485c0 9.925 8.075 18 18 18h5.035v23.974c0 4.418 3.582 8 8 8h21.45v10.301c0 14.502 11.798 26.301 26.3 26.301h96.342c14.503 0 26.302-11.799 26.302-26.301zm34.484-92.759c1.084 0 2 .916 2 2v30.485c0 1.084-.916 2-2 2h-5.035v-34.484h5.035zm-217.913 34.484c-1.084 0-2-.916-2-2v-30.485c0-1.084.916-2 2-2h5.035v34.484h-5.035zm108.957-92.779c10.744 0 20.599 5.302 26.648 13.687h-53.296c6.049-8.385 15.904-13.687 26.648-13.687zm-87.921 29.686h175.842v95.067h-175.842zm29.449 121.368v-10.301h116.943v10.301c0 5.68-4.621 10.301-10.301 10.301h-96.342c-5.679 0-10.3-4.621-10.3-10.301zm132.993-115.968h-149.042c-4.418 0-8 3.582-8 8v68.268c0 4.418 3.582 8 8 8h149.042c4.418 0 8-3.582 8-8v-68.268c0-4.419-3.582-8-8-8zm-8 68.267h-133.042v-52.268h133.042zm-106.909-3.134c12.682 0 23-10.318 23-23s-10.317-23-23-23-23 10.317-23 23 10.318 23 23 23zm0-29.999c3.859 0 7 3.14 7 7s-3.14 7-7 7-7-3.14-7-7 3.14-7 7-7zm80.776 29.999c12.682 0 23-10.318 23-23s-10.318-23-23-23-23 10.317-23 23 10.318 23 23 23zm0-29.999c3.86 0 7 3.14 7 7s-3.14 7-7 7c-3.859 0-7-3.14-7-7s3.14-7 7-7zm-253.978 14.222c15.299-44.731 39.345-85.262 71.468-120.468 34.178-37.457 76.424-67.036 122.978-86.258l-15.418-4.16c-4.266-1.151-6.791-5.542-5.64-9.808 1.15-4.266 5.543-6.792 9.808-5.64l41.096 11.089c2.571.694 4.629 2.622 5.488 5.143s.408 5.304-1.205 7.424l-25.78 33.896c-1.574 2.069-3.96 3.158-6.374 3.158-1.688 0-3.39-.532-4.837-1.633-3.517-2.675-4.199-7.694-1.525-11.21l10.129-13.317c-44.243 18.329-84.396 46.477-116.902 82.102-30.636 33.575-53.564 72.22-68.149 114.861-1.136 3.323-4.243 5.413-7.569 5.413-.858 0-1.731-.139-2.589-.433-4.179-1.431-6.409-5.979-4.979-10.159zm427.18-7.529c-15.299 44.732-39.345 85.263-71.468 120.468-34.179 37.458-76.425 67.036-122.979 86.257l15.419 4.161c4.266 1.151 6.791 5.542 5.64 9.808-.962 3.568-4.192 5.918-7.719 5.918-.69 0-1.391-.09-2.089-.278l-41.096-11.089c-2.571-.694-4.629-2.622-5.488-5.143s-.408-5.304 1.205-7.424l25.781-33.896c2.675-3.517 7.694-4.2 11.21-1.525 3.517 2.675 4.199 7.694 1.525 11.21l-10.13 13.319c44.243-18.329 84.395-46.477 116.903-82.102 30.635-33.574 53.563-72.219 68.148-114.861 1.429-4.18 5.974-6.413 10.158-4.98 4.181 1.428 6.411 5.977 4.98 10.157zm29.283-165.882-11.1-4.272c-1.723-5.901-4.08-11.586-7.042-16.984l4.831-10.877c1.344-3.025.686-6.564-1.654-8.904l-17.226-17.225c-2.341-2.34-5.88-2.996-8.904-1.655l-10.882 4.833c-5.397-2.96-11.08-5.317-16.978-7.04l-4.273-11.104c-1.188-3.088-4.156-5.126-7.465-5.126h-24.36c-3.309 0-6.277 2.038-7.466 5.126l-4.274 11.104c-5.896 1.722-11.581 4.079-16.978 7.04l-10.882-4.833c-3.024-1.342-6.564-.685-8.904 1.655l-17.226 17.224c-2.34 2.34-2.998 5.879-1.655 8.904l4.833 10.881c-2.96 5.397-5.317 11.082-7.04 16.979l-11.103 4.274c-3.088 1.189-5.125 4.157-5.125 7.466v24.36c0 3.31 2.038 6.277 5.126 7.466l11.1 4.272c1.724 5.902 4.081 11.587 7.042 16.984l-4.831 10.877c-1.344 3.025-.686 6.564 1.654 8.904l17.226 17.225c2.34 2.341 5.881 2.998 8.904 1.655l10.882-4.833c5.396 2.96 11.081 5.317 16.979 7.04l4.274 11.104c1.188 3.088 4.156 5.126 7.466 5.126h24.36c3.31 0 6.277-2.038 7.466-5.126l4.272-11.1c5.901-1.723 11.588-4.081 16.985-7.041l10.876 4.831c3.025 1.344 6.564.686 8.904-1.654l17.225-17.225c2.34-2.34 2.998-5.879 1.655-8.904l-4.833-10.882c2.96-5.397 5.316-11.081 7.039-16.978l11.104-4.274c3.089-1.188 5.126-4.156 5.126-7.466v-24.361c-.001-3.31-2.039-6.278-5.128-7.466zm-10.873 26.333-9.788 3.768c-2.462.947-4.298 3.047-4.909 5.613-1.694 7.119-4.505 13.898-8.354 20.15-1.383 2.246-1.569 5.03-.499 7.441l4.262 9.595-9.458 9.457-9.59-4.259c-2.412-1.072-5.197-.885-7.442.5-6.25 3.849-13.03 6.66-20.154 8.355-2.566.611-4.667 2.447-5.614 4.909l-3.767 9.784h-13.375l-3.768-9.788c-.947-2.461-3.048-4.298-5.614-4.909-7.119-1.694-13.898-4.505-20.148-8.354-2.246-1.383-5.03-1.57-7.442-.499l-9.596 4.261-9.457-9.457 4.259-9.59c1.071-2.411.884-5.195-.499-7.442-3.849-6.25-6.66-13.031-8.355-20.155-.611-2.566-2.447-4.667-4.909-5.614l-9.783-3.765v-13.375l9.787-3.768c2.461-.948 4.298-3.047 4.909-5.613 1.694-7.12 4.505-13.899 8.354-20.151 1.383-2.247 1.57-5.03.5-7.441l-4.261-9.594 9.458-9.458 9.595 4.261c2.41 1.071 5.195.884 7.441-.499 6.252-3.85 13.031-6.66 20.148-8.354 2.566-.611 4.667-2.447 5.614-4.909l3.767-9.787h13.374l3.767 9.788c.948 2.462 3.048 4.298 5.615 4.909 7.118 1.693 13.896 4.504 20.148 8.354 2.247 1.383 5.031 1.57 7.442.499l9.596-4.261 9.457 9.457-4.259 9.59c-1.071 2.411-.884 5.195.499 7.442 3.85 6.251 6.661 13.033 8.355 20.154.611 2.566 2.447 4.667 4.909 5.614l9.785 3.766zm-82-57.17c-27.837 0-50.484 22.647-50.484 50.483 0 27.837 22.647 50.484 50.484 50.484s50.484-22.647 50.484-50.484c-.001-27.836-22.648-50.483-50.484-50.483zm0 84.967c-19.015 0-34.484-15.469-34.484-34.484 0-19.014 15.469-34.483 34.484-34.483s34.483 15.469 34.483 34.483c0 19.015-15.469 34.484-34.483 34.484zm-207.126 245.87-11.1-4.272c-1.723-5.901-4.08-11.586-7.042-16.984l4.831-10.877c1.344-3.025.686-6.564-1.654-8.904l-17.226-17.225c-2.34-2.34-5.879-2.996-8.904-1.655l-10.882 4.833c-5.397-2.96-11.08-5.317-16.978-7.04l-4.274-11.104c-1.189-3.088-4.157-5.126-7.466-5.126h-24.359c-3.31 0-6.277 2.038-7.466 5.126l-4.274 11.104c-5.897 1.723-11.581 4.079-16.978 7.04l-10.882-4.833c-3.024-1.342-6.563-.685-8.904 1.655l-17.225 17.226c-2.34 2.34-2.998 5.879-1.655 8.904l4.833 10.88c-2.96 5.396-5.317 11.081-7.04 16.98l-11.103 4.274c-3.088 1.187-5.126 4.155-5.126 7.464v24.36c0 3.31 2.038 6.277 5.126 7.466l11.1 4.272c1.724 5.901 4.081 11.587 7.042 16.984l-4.831 10.877c-1.344 3.025-.686 6.564 1.654 8.904l17.226 17.225c2.341 2.341 5.881 2.998 8.904 1.655l10.882-4.833c5.396 2.96 11.081 5.317 16.978 7.04l4.273 11.104c1.189 3.088 4.157 5.126 7.466 5.126h24.36c3.31 0 6.277-2.038 7.466-5.126l4.272-11.1c5.9-1.723 11.587-4.081 16.985-7.042l10.876 4.831c3.025 1.344 6.564.686 8.904-1.654l17.225-17.225c2.34-2.34 2.998-5.879 1.655-8.904l-4.833-10.882c2.96-5.397 5.316-11.081 7.039-16.978l11.104-4.274c3.089-1.188 5.126-4.156 5.126-7.466v-24.36c.001-3.31-2.036-6.278-5.125-7.466zm-10.874 26.333-9.788 3.768c-2.462.947-4.298 3.047-4.909 5.613-1.694 7.119-4.505 13.898-8.354 20.15-1.383 2.246-1.569 5.03-.499 7.441l4.262 9.595-9.458 9.457-9.59-4.259c-2.412-1.072-5.196-.885-7.442.499-6.251 3.85-13.032 6.661-20.154 8.355-2.566.611-4.667 2.447-5.614 4.909l-3.766 9.785h-13.375l-3.767-9.788c-.948-2.462-3.048-4.299-5.615-4.909-7.119-1.694-13.897-4.504-20.148-8.354-2.245-1.383-5.03-1.57-7.442-.499l-9.596 4.261-9.457-9.457 4.259-9.59c1.071-2.411.884-5.195-.499-7.442-3.849-6.25-6.66-13.031-8.355-20.155-.611-2.566-2.447-4.667-4.909-5.614l-9.784-3.765v-13.375l9.787-3.768c2.461-.948 4.298-3.047 4.909-5.613 1.695-7.122 4.506-13.901 8.354-20.15 1.383-2.247 1.57-5.031.5-7.442l-4.261-9.594 9.458-9.458 9.595 4.261c2.41 1.071 5.195.884 7.441-.499 6.252-3.85 13.031-6.66 20.148-8.354 2.566-.611 4.667-2.447 5.614-4.909l3.768-9.787h13.375l3.768 9.789c.948 2.461 3.048 4.298 5.614 4.909 7.118 1.693 13.896 4.504 20.148 8.354 2.247 1.383 5.031 1.569 7.442.499l9.596-4.261 9.457 9.457-4.259 9.59c-1.071 2.411-.884 5.195.499 7.442 3.85 6.251 6.661 13.033 8.355 20.154.611 2.566 2.447 4.667 4.909 5.614l9.784 3.766v13.374zm-82-57.17c-27.836 0-50.483 22.647-50.483 50.483 0 27.837 22.647 50.484 50.483 50.484 27.837 0 50.484-22.647 50.484-50.484 0-27.836-22.647-50.483-50.484-50.483zm0 84.967c-19.014 0-34.483-15.469-34.483-34.484 0-19.014 15.469-34.483 34.483-34.483 19.015 0 34.484 15.469 34.484 34.483 0 19.015-15.469 34.484-34.484 34.484z"/></svg>